<svg xmlns="http://www.w3.org/2000/svg" style="background: transparent; background-color: transparent;" xmlns:xlink="http://www.w3.org/1999/xlink" version="1.1" width="863px" height="661px" viewBox="-0.5 -0.5 863 661" content="&lt;mxfile&gt;&lt;diagram id=&quot;UvX_0MgxD24ZwIyP3tpF&quot; name=&quot;Page-1&quot;&gt;7Vttc5s4EP41/pgMLwbjj37BvZvLTTtNr71+ysggY40xYiRhO/31t8LCYJCd5AKh14szk6CVAGmfZ1e7q3hgz7aHDwyl6z9piOOBZYSHgT0fWNZoZMFvKXg8Cix7fBREjIRHkVkK7skPrISGkmYkxPxsoKA0FiQ9FwY0SXAgzmSIMbo/H7ai8flbUxThhuA+QHFT+o2EYq2kpjsuO37DJFqrV3vW6NixRcVgtRK+RiHdV0S2P7BnjFJxvNoeZjiWuiv0crxvcaH3NDGGE/GcGwQRsKj8ph2KM7W+LzjhlMVoA13GPUrCJT3A1cC3Bp4xGA/hesKCNRGg3IzJQR93mO0I3qtVicdCVQIfYCLTtdjGIDDhkgtGN3hGY8pAktAERk5XJI5rIhSTKIFmAEvBIJ/CKwQBECaqY0vCUL5mupczuU9RIN+5B8aBjNEsCbFcpSEfTxOhaGR6RVtN0lTt4vUDyzaRiSz55KY6lYblXPChIlLq/YDpFgv2CEMOBbeHx1sKrivk9yVxRoaSrSucGSoZUlyNTk8u4YQLhageXZSmN8uoAW8DpFJZ5gV1VvCrQgW6wh4erlYNXKFnNHU93z/1FJZiSWxZoODw2tGyXdOy19Syo9Oyabek5hgtpY+raXryuzSVNI2Bt4LQpAPziPFKaIxD0LTGe/tp3tuhtUJGS4g4xhki4yYipqtBxBq+HhBwTekN+GCY/JPcBw+cysvtIZJ71W1AeEBvA7pNM3A7/AG830OKGUnXmKGY36ZB0wZqTNdpNKVEujF/B5Piyiu1oeWRd6ZlU+Nehh15l1LLN/HyEvdLELrZFKoMv8boOvNbYXhN967V0L2nY3hbul+SHy/n9yqm+2CNmLhNGQ0w5/+Kzi2ozzF7pi6oT0vcacZJIhVjGXc0IsEvSt/huGf67levYS8X8PvB6ou9bt3435q9+5WWvN8o20glgdRPIuDxL8pe1+6PvTiM8I0M+ni4aQBwljt9ehRrGfUZ9/M/GkDIxxRaoQwGRjRBsV9KL2MEyh3mH210rYvyrsGUf0Cex7BTFGyiPCGoDFnlHxiCD0T8LcOXW0e1vquXyOv5QUU2eeOxaCSg38pNsvm92lfelreK+y6yhNOMBUqJ1RQHPEKE1VB+zFpPfVLZV3nFcAwh+u48w38NS+oz6CoBC93VECMdRcz52B85TYrkMJQpmGyFiK9P2XIL5mk6taxXE/572vDfbcFAC9XrkzJ9deOnTsyMhes7bkvQjM6hsY0mNJYuV24jMyuQ4dmygcs9DvJi0kyO5xTMERhpGUFMM/kXH6D/mEQbONkRRpNtN8nFs5Ez3hgpTYxha6saXgtBBkpv0keN63KlZ5ErP21un7NEkG0z0nhpag25IrSCB5WYUNZ0djWXVlW85xhDjemcti4dcFWTK+C+k07jE+Uk55o9X1Ih6LbYHisdFwuTR6I0oqU2GOHVGOHq6lxNQjhtRJ1AiBW/RogFiTF/5AJvn0kFLihDES7+PnDMdvgd9UYJeWz0inq60YUwpR+AiBHQ40+CXk3eKMPhQ4gEeke7XlYau/2iDd73Gtx3NIluWJYkJIlkinN01s+A/yn3/279+jqZYfXKh6U8L4XFXKHEtDrkFQzYU7bh4nhS8k6DWsHD8HqlQZBdY8BMYQoD/uKvjwR1hyz/c/xHZr+hHyLX8M8Pe2TtMaYobGEryKBVdL9ToUYFz+ovHsxrnysZ6Gvo0GqBc2o4jq2pXp1VIYtWz1XIeq2vWomkmagq7O0LkTlkMY06R+xKSfqnqxs/hVipr54AQwSm0TVipucsJk/ZmPffQKzYoN4er5qFV+D6ICtaqo65KEe0VPlfTPyZP9LhOveciW1oca1ugJcOi6o2PTGnxmxQPS8wOzojcDXlTW0huo0jghNm2lL0Z5yCMcn/AJAPhCR3vigbs/uvTRw7OlXVVJhPiHQBgfPcs4CWINBuS36l0n93GtCW0Zj+wvd0RuMsHN+ZtGE01gx+Jp0YzdDr2WgkYlqbUYUgEH7GPIsr1vOFATZ9mswJjy4AeGuT0SRiefb1MROQLrVrLL67MBfTF0YOLzQWY2jNHLsTY/HMno0FEa2p5F+IKO3D3y5xGJIkKkVzWRnvz2BOmHQBQocGA83yuxN5X+ULKLb/Dw==&lt;/diagram&gt;&lt;/mxfile&gt;"><defs/><g><g><rect x="81" y="0" width="700" height="40" fill="none" stroke="none" pointer-events="all"/></g><g><g transform="translate(-0.5 -0.5)"><switch><foreignObject style="overflow: visible; text-align: left;" pointer-events="none" width="100%" height="100%" requiredFeatures="http://www.w3.org/TR/SVG11/feature#Extensibility"><div xmlns="http://www.w3.org/1999/xhtml" style="display: flex; align-items: unsafe center; justify-content: unsafe center; width: 698px; height: 1px; padding-top: 20px; margin-left: 82px;"><div style="box-sizing: border-box; font-size: 0; text-align: center; color: #1a1a2e; "><div style="display: inline-block; font-size: 18px; font-family: &quot;Helvetica&quot;; color: light-dark(#1a1a2e, #d5d5e6); line-height: 1.2; pointer-events: all; font-weight: bold; white-space: normal; word-wrap: normal; ">Tensorlake Sandbox — Architecture Overview</div></div></div></foreignObject><text x="431" y="25" fill="#1a1a2e" font-family="&quot;Helvetica&quot;" font-size="18px" text-anchor="middle" font-weight="bold">Tensorlake Sandbox — Architecture Overview</text></switch></g></g><g><rect x="181" y="60" width="500" height="130" rx="10.4" ry="10.4" fill="#e8e4ff" stroke="#7b68ee" stroke-width="2" pointer-events="all" style="fill: light-dark(rgb(232, 228, 255), rgb(39, 36, 59)); stroke: light-dark(rgb(123, 104, 238), rgb(141, 124, 240));"/></g><g><rect x="197" y="70" width="160" height="24" fill="none" stroke="none" pointer-events="all"/></g><g><g transform="translate(-0.5 -0.5)"><switch><foreignObject style="overflow: visible; text-align: left;" pointer-events="none" width="100%" height="100%" requiredFeatures="http://www.w3.org/TR/SVG11/feature#Extensibility"><div xmlns="http://www.w3.org/1999/xhtml" style="display: flex; align-items: unsafe flex-start; justify-content: unsafe flex-start; width: 1px; height: 1px; padding-top: 77px; margin-left: 199px;"><div style="box-sizing: border-box; font-size: 0; text-align: left; color: #3d2fa0; "><div style="display: inline-block; font-size: 13px; font-family: &quot;Helvetica&quot;; color: light-dark(#3d2fa0, #beb2ff); line-height: 1.2; pointer-events: all; font-weight: bold; white-space: nowrap; ">AI Application</div></div></div></foreignObject><text x="199" y="90" fill="#3d2fa0" font-family="&quot;Helvetica&quot;" font-size="13px" font-weight="bold">AI Application</text></switch></g></g><g><rect x="225" y="100" width="0" height="0" fill="none" stroke="#3d2fa0" pointer-events="all" style="stroke: light-dark(rgb(61, 47, 160), rgb(190, 178, 255));"/><path d="M 259.29 134.25 L 259.29 126.97 L 225 126.97 L 225 134.25 Z" fill="#7b68ee" stroke="#3d2fa0" stroke-linejoin="round" stroke-miterlimit="10" pointer-events="all" style="fill: light-dark(rgb(123, 104, 238), rgb(141, 124, 240)); stroke: light-dark(rgb(61, 47, 160), rgb(190, 178, 255));"/><path d="M 248.67 130.91 L 257.38 130.91" fill="none" stroke="#3d2fa0" stroke-linejoin="round" stroke-miterlimit="10" pointer-events="all" style="stroke: light-dark(rgb(61, 47, 160), rgb(190, 178, 255));"/><path d="M 265 120.91 L 230.71 120.91 L 225 126.97 L 259.29 126.97 Z" fill="#7b68ee" stroke="#3d2fa0" stroke-linejoin="round" stroke-miterlimit="10" pointer-events="all" style="fill: light-dark(rgb(123, 104, 238), rgb(141, 124, 240)); stroke: light-dark(rgb(61, 47, 160), rgb(190, 178, 255));"/><path d="M 265 127.27 L 265 120.91 L 259.29 126.97 L 259.29 134.25 Z M 253.29 140 L 253.29 138.48 L 256.29 133.64 L 256.29 136.66 Z M 253.29 138.48 L 253.29 140 L 225.82 140 L 225.82 138.48 Z M 253.29 138.48 L 225.82 138.48 L 228.8 133.64 L 256.29 133.64 Z M 254.66 123.34 L 254.66 104.25 L 231.25 104.25 L 231.25 123.34 Z" fill="#7b68ee" stroke="#3d2fa0" stroke-linejoin="round" stroke-miterlimit="10" pointer-events="all" style="fill: light-dark(rgb(123, 104, 238), rgb(141, 124, 240)); stroke: light-dark(rgb(61, 47, 160), rgb(190, 178, 255));"/><path d="M 233.16 108.48 C 233.16 106.36 234.8 106.06 234.8 106.06 C 234.8 106.06 248.94 106.06 250.58 106.06 C 252.76 106.06 252.76 108.48 252.76 108.48 C 252.76 108.48 252.76 117.88 252.76 119.39 C 252.76 120.61 250.84 121.21 250.84 121.21 C 250.84 121.21 236.7 121.21 235.07 121.21 C 233.7 121.21 233.16 119.39 233.16 119.39 Z" fill="none" stroke="#3d2fa0" stroke-linejoin="round" stroke-miterlimit="10" pointer-events="all" style="stroke: light-dark(rgb(61, 47, 160), rgb(190, 178, 255));"/><path d="M 258.74 100 L 235.07 100 L 231.25 104.25 L 254.66 104.25 Z" fill="#7b68ee" stroke="#3d2fa0" stroke-linejoin="round" stroke-miterlimit="10" pointer-events="all" style="fill: light-dark(rgb(123, 104, 238), rgb(141, 124, 240)); stroke: light-dark(rgb(61, 47, 160), rgb(190, 178, 255));"/><path d="M 258.74 119.39 L 258.74 100 L 254.66 104.25 L 254.66 123.34 Z" fill="#7b68ee" stroke="#3d2fa0" stroke-linejoin="round" stroke-miterlimit="10" pointer-events="all" style="fill: light-dark(rgb(123, 104, 238), rgb(141, 124, 240)); stroke: light-dark(rgb(61, 47, 160), rgb(190, 178, 255));"/></g><g><rect x="205" y="142" width="80" height="20" fill="none" stroke="none" pointer-events="all"/></g><g><g transform="translate(-0.5 -0.5)"><switch><foreignObject style="overflow: visible; text-align: left;" pointer-events="none" width="100%" height="100%" requiredFeatures="http://www.w3.org/TR/SVG11/feature#Extensibility"><div xmlns="http://www.w3.org/1999/xhtml" style="display: flex; align-items: unsafe flex-start; justify-content: unsafe center; width: 1px; height: 1px; padding-top: 149px; margin-left: 245px;"><div style="box-sizing: border-box; font-size: 0; text-align: center; color: #3d2fa0; "><div style="display: inline-block; font-size: 11px; font-family: &quot;Helvetica&quot;; color: light-dark(#3d2fa0, #beb2ff); line-height: 1.2; pointer-events: all; font-weight: bold; white-space: nowrap; ">AI Agent</div></div></div></foreignObject><text x="245" y="160" fill="#3d2fa0" font-family="&quot;Helvetica&quot;" font-size="11px" text-anchor="middle" font-weight="bold">AI Agent</text></switch></g></g><g><rect x="365" y="100" width="40" height="40" rx="2.4" ry="2.4" fill="#7b68ee" stroke="#3d2fa0" pointer-events="all" style="fill: light-dark(rgb(123, 104, 238), rgb(141, 124, 240)); stroke: light-dark(rgb(61, 47, 160), rgb(190, 178, 255));"/></g><g><rect x="345" y="142" width="80" height="20" fill="none" stroke="none" pointer-events="all"/></g><g><g transform="translate(-0.5 -0.5)"><switch><foreignObject style="overflow: visible; text-align: left;" pointer-events="none" width="100%" height="100%" requiredFeatures="http://www.w3.org/TR/SVG11/feature#Extensibility"><div xmlns="http://www.w3.org/1999/xhtml" style="display: flex; align-items: unsafe flex-start; justify-content: unsafe center; width: 1px; height: 1px; padding-top: 149px; margin-left: 385px;"><div style="box-sizing: border-box; font-size: 0; text-align: center; color: #3d2fa0; "><div style="display: inline-block; font-size: 11px; font-family: &quot;Helvetica&quot;; color: light-dark(#3d2fa0, #beb2ff); line-height: 1.2; pointer-events: all; font-weight: bold; white-space: nowrap; ">Business Logic</div></div></div></foreignObject><text x="385" y="160" fill="#3d2fa0" font-family="&quot;Helvetica&quot;" font-size="11px" text-anchor="middle" font-weight="bold">Business Logic</text></switch></g></g><g><ellipse cx="525" cy="120" rx="20" ry="20" fill="#7b68ee" stroke="#3d2fa0" pointer-events="all" style="fill: light-dark(rgb(123, 104, 238), rgb(141, 124, 240)); stroke: light-dark(rgb(61, 47, 160), rgb(190, 178, 255));"/></g><g><rect x="485" y="142" width="80" height="20" fill="none" stroke="none" pointer-events="all"/></g><g><g transform="translate(-0.5 -0.5)"><switch><foreignObject style="overflow: visible; text-align: left;" pointer-events="none" width="100%" height="100%" requiredFeatures="http://www.w3.org/TR/SVG11/feature#Extensibility"><div xmlns="http://www.w3.org/1999/xhtml" style="display: flex; align-items: unsafe flex-start; justify-content: unsafe center; width: 1px; height: 1px; padding-top: 149px; margin-left: 525px;"><div style="box-sizing: border-box; font-size: 0; text-align: center; color: #3d2fa0; "><div style="display: inline-block; font-size: 11px; font-family: &quot;Helvetica&quot;; color: light-dark(#3d2fa0, #beb2ff); line-height: 1.2; pointer-events: all; font-weight: bold; white-space: nowrap; ">Workflow Engine</div></div></div></foreignObject><text x="525" y="160" fill="#3d2fa0" font-family="&quot;Helvetica&quot;" font-size="11px" text-anchor="middle" font-weight="bold">Workflow Engine</text></switch></g></g><g><path d="M 431 190 L 431 261.76" fill="none" stroke="#444444" stroke-width="2" stroke-miterlimit="10" pointer-events="stroke" style="stroke: light-dark(rgb(68, 68, 68), rgb(179, 179, 179));"/><path d="M 431 267.76 L 427 259.76 L 431 261.76 L 435 259.76 Z" fill="#444444" stroke="#444444" stroke-width="2" stroke-miterlimit="10" pointer-events="all" style="fill: light-dark(rgb(68, 68, 68), rgb(179, 179, 179)); stroke: light-dark(rgb(68, 68, 68), rgb(179, 179, 179));"/></g><g><g transform="translate(-0.5 -0.5)"><switch><foreignObject style="overflow: visible; text-align: left;" pointer-events="none" width="100%" height="100%" requiredFeatures="http://www.w3.org/TR/SVG11/feature#Extensibility"><div xmlns="http://www.w3.org/1999/xhtml" style="display: flex; align-items: unsafe center; justify-content: unsafe center; width: 1px; height: 1px; padding-top: 230px; margin-left: 431px;"><div style="box-sizing: border-box; font-size: 0; text-align: center; color: #333333; background-color: #ffffff; "><div style="display: inline-block; font-size: 11px; font-family: &quot;Helvetica&quot;; color: light-dark(#333333, #c1c1c1); line-height: 1.2; pointer-events: all; font-weight: bold; background-color: light-dark(#ffffff, #121212); white-space: nowrap; ">Tensorlake Python SDK</div></div></div></foreignObject><text x="431" y="233" fill="#333333" font-family="&quot;Helvetica&quot;" font-size="11px" text-anchor="middle" font-weight="bold">Tensorlake Python SDK</text></switch></g></g><g><rect x="1" y="270" width="860" height="260" rx="13" ry="13" fill="#d6f4ea" stroke="#1d9e75" stroke-width="2.5" pointer-events="all" style="fill: light-dark(rgb(214, 244, 234), rgb(13, 39, 30)); stroke: light-dark(rgb(29, 158, 117), rgb(42, 153, 117));"/></g><g><rect x="21" y="280" width="200" height="24" fill="none" stroke="none" pointer-events="all"/></g><g><g transform="translate(-0.5 -0.5)"><switch><foreignObject style="overflow: visible; text-align: left;" pointer-events="none" width="100%" height="100%" requiredFeatures="http://www.w3.org/TR/SVG11/feature#Extensibility"><div xmlns="http://www.w3.org/1999/xhtml" style="display: flex; align-items: unsafe flex-start; justify-content: unsafe flex-start; width: 1px; height: 1px; padding-top: 287px; margin-left: 23px;"><div style="box-sizing: border-box; font-size: 0; text-align: left; color: #0F6E56; "><div style="display: inline-block; font-size: 13px; font-family: &quot;Helvetica&quot;; color: light-dark(#0F6E56, #63b4a0); line-height: 1.2; pointer-events: all; font-weight: bold; white-space: nowrap; ">Tensorlake Sandbox</div></div></div></foreignObject><text x="23" y="300" fill="#0F6E56" font-family="&quot;Helvetica&quot;" font-size="13px" font-weight="bold">Tensorlake Sandbox</text></switch></g></g><g><rect x="21" y="300" width="300" height="18" fill="none" stroke="none" pointer-events="all"/></g><g><g transform="translate(-0.5 -0.5)"><switch><foreignObject style="overflow: visible; text-align: left;" pointer-events="none" width="100%" height="100%" requiredFeatures="http://www.w3.org/TR/SVG11/feature#Extensibility"><div xmlns="http://www.w3.org/1999/xhtml" style="display: flex; align-items: unsafe flex-start; justify-content: unsafe flex-start; width: 1px; height: 1px; padding-top: 307px; margin-left: 23px;"><div style="box-sizing: border-box; font-size: 0; text-align: left; color: #0F6E56; "><div style="display: inline-block; font-size: 10px; font-family: &quot;Helvetica&quot;; color: light-dark(#0F6E56, #63b4a0); line-height: 1.2; pointer-events: all; white-space: nowrap; ">Secure, isolated cloud execution environment</div></div></div></foreignObject><text x="23" y="317" fill="#0F6E56" font-family="&quot;Helvetica&quot;" font-size="10px">Secure, isolated cloud execution environment</text></switch></g></g><g><rect x="31" y="340" width="50" height="50" fill="#1d9e75" stroke="#085041" pointer-events="all" style="fill: light-dark(rgb(29, 158, 117), rgb(42, 153, 117)); stroke: light-dark(rgb(8, 80, 65), rgb(134, 196, 183));"/></g><g><g fill="#ffffff" font-family="&quot;Helvetica&quot;" font-weight="bold" text-anchor="middle" font-size="10px" style="fill: light-dark(rgb(255, 255, 255), rgb(18, 18, 18));"><text x="55.5" y="417.5">Python Runtime</text></g></g><g><rect x="137" y="340" width="50" height="50" fill="#1d9e75" stroke="#085041" pointer-events="all" style="fill: light-dark(rgb(29, 158, 117), rgb(42, 153, 117)); stroke: light-dark(rgb(8, 80, 65), rgb(134, 196, 183));"/></g><g><g fill="#ffffff" font-family="&quot;Helvetica&quot;" font-weight="bold" text-anchor="middle" font-size="10px" style="fill: light-dark(rgb(255, 255, 255), rgb(18, 18, 18));"><text x="161.5" y="417.5">Filesystem</text></g></g><g><path d="M 248.18 340 L 292.74 340 C 293 340.47 293 341.19 292.74 341.67 C 290.74 345.38 289.41 354.66 289.41 365 C 289.41 375.34 290.74 384.62 292.74 388.33 C 293 388.81 293 389.53 292.74 390 L 248.18 390 C 245.32 390 243 378.81 243 365 C 243 351.19 245.32 340 248.18 340 Z" fill="#1d9e75" stroke="#085041" stroke-miterlimit="10" pointer-events="all" style="fill: light-dark(rgb(29, 158, 117), rgb(42, 153, 117)); stroke: light-dark(rgb(8, 80, 65), rgb(134, 196, 183));"/></g><g><g fill="#ffffff" font-family="&quot;Helvetica&quot;" font-weight="bold" text-anchor="middle" font-size="10px" style="fill: light-dark(rgb(255, 255, 255), rgb(18, 18, 18));"><text x="267.5" y="417.5">Packages</text></g></g><g><rect x="349" y="340" width="50" height="50" fill="#1d9e75" stroke="#085041" pointer-events="all" style="fill: light-dark(rgb(29, 158, 117), rgb(42, 153, 117)); stroke: light-dark(rgb(8, 80, 65), rgb(134, 196, 183));"/></g><g><g fill="#ffffff" font-family="&quot;Helvetica&quot;" font-weight="bold" text-anchor="middle" font-size="10px" style="fill: light-dark(rgb(255, 255, 255), rgb(18, 18, 18));"><text x="373.5" y="417.5">Long-running Processes</text></g></g><g><path d="M 495.82 382.79 C 496.46 381.94 493.61 380.67 496.77 380.25 C 498.67 379.83 505 374.75 490.44 374.75" fill="none" stroke="#000000" stroke-miterlimit="10" pointer-events="all" style="stroke: light-dark(rgb(0, 0, 0), rgb(237, 237, 237));"/><path d="M 462.91 381.52 L 462.91 376.86 L 486.33 376.86 L 486.33 381.52 Z M 486.33 381.52 L 486.33 376.86 L 490.76 370.5 L 490.76 375.17 Z M 462.91 382.37 L 462.91 376.86 L 486.33 376.86 L 486.33 382.37 Z M 486.33 382.37 L 486.33 376.86 L 490.76 370.5 L 490.76 376.02 Z M 492.66 369.66 L 489.18 376.02 L 460.38 376.02 L 464.81 369.66 Z M 460.38 378.13 L 460.38 376.02 L 487.91 376.02 L 487.91 378.13 Z" fill="#1d9e75" stroke="#085041" stroke-linejoin="round" stroke-miterlimit="10" pointer-events="all" style="fill: light-dark(rgb(29, 158, 117), rgb(42, 153, 117)); stroke: light-dark(rgb(8, 80, 65), rgb(134, 196, 183));"/><path d="M 492.66 369.66 L 489.18 376.02 L 460.38 376.02 L 464.81 369.66 Z" fill="#1d9e75" stroke="#085041" stroke-linejoin="round" stroke-miterlimit="10" pointer-events="all" style="fill: light-dark(rgb(29, 158, 117), rgb(42, 153, 117)); stroke: light-dark(rgb(8, 80, 65), rgb(134, 196, 183));"/><path d="M 460.38 378.13 L 460.38 376.02 L 487.91 376.02 L 487.91 378.13 Z" fill="#1d9e75" stroke="#085041" stroke-linejoin="round" stroke-miterlimit="10" pointer-events="all" style="fill: light-dark(rgb(29, 158, 117), rgb(42, 153, 117)); stroke: light-dark(rgb(8, 80, 65), rgb(134, 196, 183));"/><path d="M 487.91 378.13 L 487.91 376.02 L 492.66 369.66 L 492.66 371.77 Z M 492.66 340 L 467.65 340 L 460.38 342.54 L 489.18 342.54 Z M 487.91 373.05 L 486.64 371.77 L 463.23 371.77 L 464.49 373.05 Z M 488.23 373.05 L 486.64 371.35 L 492.66 367.12 L 488.86 372.21 Z" fill="#1d9e75" stroke="#085041" stroke-linejoin="round" stroke-miterlimit="10" pointer-events="all" style="fill: light-dark(rgb(29, 158, 117), rgb(42, 153, 117)); stroke: light-dark(rgb(8, 80, 65), rgb(134, 196, 183));"/><path d="M 489.18 342.54 L 489.18 371.35 L 492.66 367.12 L 492.66 340 L 489.18 342.54 Z" fill="#1d9e75" stroke="#085041" stroke-linejoin="round" stroke-miterlimit="10" pointer-events="all" style="fill: light-dark(rgb(29, 158, 117), rgb(42, 153, 117)); stroke: light-dark(rgb(8, 80, 65), rgb(134, 196, 183));"/><path d="M 489.18 371.77 L 489.18 342.54 L 460.38 342.54 L 460.38 371.77 Z M 486.96 390 L 486.96 387.46 L 490.44 380.67 L 490.44 384.92 Z M 486.96 387.46 L 486.96 390 L 455 390 L 455 387.46 Z M 495.82 387.88 L 498.03 382.37 L 493.29 382.37 L 491.07 387.88 Z M 491.07 387.88 L 495.82 387.88 L 495.82 390 L 491.07 390 Z M 495.82 390 L 495.82 387.88 L 498.03 382.37 L 498.03 386.19 Z M 486.96 387.46 L 455 387.46 L 458.8 380.67 L 490.44 380.67 Z" fill="#1d9e75" stroke="#085041" stroke-linejoin="round" stroke-miterlimit="10" pointer-events="all" style="fill: light-dark(rgb(29, 158, 117), rgb(42, 153, 117)); stroke: light-dark(rgb(8, 80, 65), rgb(134, 196, 183));"/><path d="M 464.49 345.52 C 484.74 345.52 484.74 345.52 484.74 345.52 C 486.33 345.52 487.28 346.79 487.28 348.48 C 487.28 365.85 487.28 365.85 487.28 365.85 C 487.28 367.54 486.33 369.23 484.74 369.23 C 464.49 369.23 464.49 369.23 464.49 369.23 C 463.23 369.23 462.28 367.54 462.28 365.85 C 462.28 348.48 462.28 348.48 462.28 348.48 C 462.28 346.79 463.23 345.52 464.49 345.52 Z" fill="none" stroke="#085041" stroke-linejoin="round" stroke-miterlimit="10" pointer-events="all" style="stroke: light-dark(rgb(8, 80, 65), rgb(134, 196, 183));"/></g><g><g fill="#ffffff" font-family="&quot;Helvetica&quot;" font-weight="bold" text-anchor="middle" font-size="10px" style="fill: light-dark(rgb(255, 255, 255), rgb(18, 18, 18));"><text x="479.5" y="417.5">Browser</text></g></g><g><rect x="561" y="340" width="0" height="0" fill="none" stroke="#085041" pointer-events="all" style="stroke: light-dark(rgb(8, 80, 65), rgb(134, 196, 183));"/><path d="M 603.86 382.81 L 603.86 373.72 L 561 373.72 L 561 382.81 Z" fill="#1d9e75" stroke="#085041" stroke-linejoin="round" stroke-miterlimit="10" pointer-events="all" style="fill: light-dark(rgb(29, 158, 117), rgb(42, 153, 117)); stroke: light-dark(rgb(8, 80, 65), rgb(134, 196, 183));"/><path d="M 590.59 378.64 L 601.47 378.64" fill="none" stroke="#085041" stroke-linejoin="round" stroke-miterlimit="10" pointer-events="all" style="stroke: light-dark(rgb(8, 80, 65), rgb(134, 196, 183));"/><path d="M 611 366.14 L 568.14 366.14 L 561 373.72 L 603.86 373.72 Z" fill="#1d9e75" stroke="#085041" stroke-linejoin="round" stroke-miterlimit="10" pointer-events="all" style="fill: light-dark(rgb(29, 158, 117), rgb(42, 153, 117)); stroke: light-dark(rgb(8, 80, 65), rgb(134, 196, 183));"/><path d="M 611 374.09 L 611 366.14 L 603.86 373.72 L 603.86 382.81 Z M 596.37 390 L 596.37 388.1 L 600.11 382.05 L 600.11 385.83 Z M 596.37 388.1 L 596.37 390 L 562.02 390 L 562.02 388.1 Z M 596.37 388.1 L 562.02 388.1 L 565.76 382.05 L 600.11 382.05 Z M 598.07 369.17 L 598.07 345.31 L 568.82 345.31 L 568.82 369.17 Z" fill="#1d9e75" stroke="#085041" stroke-linejoin="round" stroke-miterlimit="10" pointer-events="all" style="fill: light-dark(rgb(29, 158, 117), rgb(42, 153, 117)); stroke: light-dark(rgb(8, 80, 65), rgb(134, 196, 183));"/><path d="M 571.2 350.6 C 571.2 347.95 573.24 347.58 573.24 347.58 C 573.24 347.58 590.93 347.58 592.97 347.58 C 595.69 347.58 595.69 350.6 595.69 350.6 C 595.69 350.6 595.69 362.35 595.69 364.24 C 595.69 365.76 593.31 366.51 593.31 366.51 C 593.31 366.51 575.62 366.51 573.58 366.51 C 571.88 366.51 571.2 364.24 571.2 364.24 Z" fill="none" stroke="#085041" stroke-linejoin="round" stroke-miterlimit="10" pointer-events="all" style="stroke: light-dark(rgb(8, 80, 65), rgb(134, 196, 183));"/><path d="M 603.17 340 L 573.58 340 L 568.82 345.31 L 598.07 345.31 Z" fill="#1d9e75" stroke="#085041" stroke-linejoin="round" stroke-miterlimit="10" pointer-events="all" style="fill: light-dark(rgb(29, 158, 117), rgb(42, 153, 117)); stroke: light-dark(rgb(8, 80, 65), rgb(134, 196, 183));"/><path d="M 603.17 364.24 L 603.17 340 L 598.07 345.31 L 598.07 369.17 Z" fill="#1d9e75" stroke="#085041" stroke-linejoin="round" stroke-miterlimit="10" pointer-events="all" style="fill: light-dark(rgb(29, 158, 117), rgb(42, 153, 117)); stroke: light-dark(rgb(8, 80, 65), rgb(134, 196, 183));"/></g><g><g fill="#ffffff" font-family="&quot;Helvetica&quot;" font-weight="bold" text-anchor="middle" font-size="10px" style="fill: light-dark(rgb(255, 255, 255), rgb(18, 18, 18));"><text x="585.5" y="417.5">Computer Use</text></g></g><g><path d="M 692.16 375.83 C 705.86 375.83 717 373.16 717 369.95 C 717 366.74 705.86 364.06 692.16 364.06 C 678.47 364.06 667.32 366.74 667.32 369.95 C 667.32 373.16 678.47 375.83 692.16 375.83 Z" fill="#1d9e75" stroke="#085041" stroke-linejoin="round" stroke-miterlimit="10" pointer-events="all" style="fill: light-dark(rgb(29, 158, 117), rgb(42, 153, 117)); stroke: light-dark(rgb(8, 80, 65), rgb(134, 196, 183));"/><path d="M 691.84 348.29 C 701.4 348.29 709.04 346.42 709.04 344.01 C 709.04 341.88 701.4 340 691.84 340 C 682.29 340 674.33 341.88 674.33 344.01 C 674.33 346.42 682.29 348.29 691.84 348.29 Z" fill="#1d9e75" stroke="#085041" stroke-linejoin="round" stroke-miterlimit="10" pointer-events="all" style="fill: light-dark(rgb(29, 158, 117), rgb(42, 153, 117)); stroke: light-dark(rgb(8, 80, 65), rgb(134, 196, 183));"/><path d="M 691.84 366.74 C 691.84 371.28 691.84 371.28 691.84 371.28 C 682.29 371.28 674.33 369.41 674.33 367.27 C 674.33 344.01 674.33 344.01 674.33 344.01 C 674.33 346.42 682.29 348.29 691.84 348.29 C 701.4 348.29 709.04 346.42 709.04 344.01 C 709.04 367.27 709.04 367.27 709.04 367.27 C 709.04 368.61 705.53 369.95 700.76 370.75" fill="#1d9e75" stroke="#085041" stroke-linejoin="round" stroke-miterlimit="10" pointer-events="all" style="fill: light-dark(rgb(29, 158, 117), rgb(42, 153, 117)); stroke: light-dark(rgb(8, 80, 65), rgb(134, 196, 183));"/><path d="M 713.18 383.85 L 713.18 373.16 L 706.49 369.41 L 706.49 346.42 M 678.47 385.72 L 678.47 375.29 L 682.29 370.75 L 682.29 347.76 M 670.51 383.58 L 670.51 373.16 L 676.87 369.15 L 676.87 346.15 M 691.84 348.29 L 691.84 371.28" fill="none" stroke="#085041" stroke-linejoin="round" stroke-miterlimit="10" pointer-events="all" style="stroke: light-dark(rgb(8, 80, 65), rgb(134, 196, 183));"/><path d="M 717 380.64 C 716.68 382.78 712.22 384.65 705.22 385.72 C 705.22 375.03 705.22 375.03 705.22 375.03 C 712.22 373.96 716.68 372.08 717 369.95 Z" fill="#1d9e75" stroke="#085041" stroke-linejoin="round" stroke-miterlimit="10" pointer-events="all" style="fill: light-dark(rgb(29, 158, 117), rgb(42, 153, 117)); stroke: light-dark(rgb(8, 80, 65), rgb(134, 196, 183));"/><path d="M 667.32 380.38 C 667.32 384.11 678.78 386.52 692.48 386.52 C 692.48 375.83 692.48 375.83 692.48 375.83 C 678.47 376.09 667 373.42 667.32 369.68 Z" fill="#1d9e75" stroke="#085041" stroke-linejoin="round" stroke-miterlimit="10" pointer-events="all" style="fill: light-dark(rgb(29, 158, 117), rgb(42, 153, 117)); stroke: light-dark(rgb(8, 80, 65), rgb(134, 196, 183));"/><path d="M 691.84 348.29 C 691.84 345.35 691.84 345.35 691.84 345.35 C 692.8 345.35 693.75 345.35 694.71 345.35 C 700.44 347.76 700.44 347.76 700.44 347.76 C 700.44 370.75 700.44 370.75 700.44 370.75 C 705.22 375.03 705.22 375.03 705.22 375.03 C 705.22 385.72 705.22 385.72 705.22 385.72 C 694.39 381.71 694.39 381.71 694.39 381.71 C 694.07 381.71 692.48 381.98 692.48 381.98 C 692.48 375.83 692.48 375.83 692.48 375.83 C 691.84 371.28 691.84 371.28 691.84 371.28 Z" fill="#1d9e75" stroke="#085041" stroke-linejoin="round" stroke-miterlimit="10" pointer-events="all" style="fill: light-dark(rgb(29, 158, 117), rgb(42, 153, 117)); stroke: light-dark(rgb(8, 80, 65), rgb(134, 196, 183));"/><path d="M 694.39 345.35 L 694.39 381.71 M 667.32 369.68 L 674.33 367.54 M 716.68 369.41 L 709.04 367.54" fill="none" stroke="#085041" stroke-linejoin="round" stroke-miterlimit="10" pointer-events="all" style="stroke: light-dark(rgb(8, 80, 65), rgb(134, 196, 183));"/><path d="M 695.98 349.1 C 698.85 348.82 698.85 348.82 698.85 348.82 C 704.9 350.96 704.9 350.96 704.9 350.96 C 702.67 351.5 697.26 352.03 696.3 351.77 Z" fill="#1d9e75" stroke="#085041" stroke-linejoin="round" stroke-miterlimit="10" pointer-events="all" style="fill: light-dark(rgb(29, 158, 117), rgb(42, 153, 117)); stroke: light-dark(rgb(8, 80, 65), rgb(134, 196, 183));"/><path d="M 695.98 349.1 L 696.3 351.77 L 696.3 374.76 L 696.94 379.57 L 696.94 390 L 695.98 385.72 Z" fill="#1d9e75" stroke="#085041" stroke-linejoin="round" stroke-miterlimit="10" pointer-events="all" style="fill: light-dark(rgb(29, 158, 117), rgb(42, 153, 117)); stroke: light-dark(rgb(8, 80, 65), rgb(134, 196, 183));"/><path d="M 696.3 351.77 C 697.89 351.77 703.62 351.23 704.9 350.96 C 704.9 373.96 704.9 373.96 704.9 373.96 C 702.67 374.22 698.22 374.76 696.3 374.76 Z" fill="#1d9e75" stroke="#085041" stroke-linejoin="round" stroke-miterlimit="10" pointer-events="all" style="fill: light-dark(rgb(29, 158, 117), rgb(42, 153, 117)); stroke: light-dark(rgb(8, 80, 65), rgb(134, 196, 183));"/><path d="M 704.9 373.96 C 709.68 377.97 709.68 377.97 709.68 377.97 C 707.13 378.5 698.53 379.3 696.94 379.3 C 696.3 374.76 696.3 374.76 696.3 374.76 C 697.26 374.76 704.58 374.22 704.9 373.96 Z" fill="#1d9e75" stroke="#085041" stroke-linejoin="round" stroke-miterlimit="10" pointer-events="all" style="fill: light-dark(rgb(29, 158, 117), rgb(42, 153, 117)); stroke: light-dark(rgb(8, 80, 65), rgb(134, 196, 183));"/><path d="M 709.68 377.97 C 709.68 388.66 709.68 388.66 709.68 388.66 C 707.77 389.2 699.17 390 696.94 390 C 696.94 379.57 696.94 379.57 696.94 379.57 C 698.53 379.57 706.49 378.77 709.68 377.97 Z" fill="#1d9e75" stroke="#085041" stroke-linejoin="round" stroke-miterlimit="10" pointer-events="all" style="fill: light-dark(rgb(29, 158, 117), rgb(42, 153, 117)); stroke: light-dark(rgb(8, 80, 65), rgb(134, 196, 183));"/></g><g><g fill="#ffffff" font-family="&quot;Helvetica&quot;" font-weight="bold" text-anchor="middle" font-size="10px" style="fill: light-dark(rgb(255, 255, 255), rgb(18, 18, 18));"><text x="691.5" y="417.5">AI Workloads</text></g></g><g><path d="M 173 530 L 173 555 Q 173 565 163 565 L 111 565 Q 101 565 101 575 L 101 591.76" fill="none" stroke="#b05535" stroke-width="2" stroke-miterlimit="10" pointer-events="stroke" style="stroke: light-dark(rgb(176, 85, 53), rgb(213, 135, 107));"/><path d="M 101 597.76 L 97 589.76 L 101 591.76 L 105 589.76 Z" fill="#b05535" stroke="#b05535" stroke-width="2" stroke-miterlimit="10" pointer-events="all" style="fill: light-dark(rgb(176, 85, 53), rgb(213, 135, 107)); stroke: light-dark(rgb(176, 85, 53), rgb(213, 135, 107));"/></g><g><path d="M 431 530 L 431 591.76" fill="none" stroke="#444444" stroke-width="2" stroke-miterlimit="10" pointer-events="stroke" style="stroke: light-dark(rgb(68, 68, 68), rgb(179, 179, 179));"/><path d="M 431 597.76 L 427 589.76 L 431 591.76 L 435 589.76 Z" fill="#444444" stroke="#444444" stroke-width="2" stroke-miterlimit="10" pointer-events="all" style="fill: light-dark(rgb(68, 68, 68), rgb(179, 179, 179)); stroke: light-dark(rgb(68, 68, 68), rgb(179, 179, 179));"/></g><g><path d="M 689 530 L 689 555 Q 689 565 699 565 L 751 565 Q 761 565 761 575 L 761 591.76" fill="none" stroke="#185fa5" stroke-width="2" stroke-miterlimit="10" pointer-events="stroke" style="stroke: light-dark(rgb(24, 95, 165), rgb(111, 173, 233));"/><path d="M 761 597.76 L 757 589.76 L 761 591.76 L 765 589.76 Z" fill="#185fa5" stroke="#185fa5" stroke-width="2" stroke-miterlimit="10" pointer-events="all" style="fill: light-dark(rgb(24, 95, 165), rgb(111, 173, 233)); stroke: light-dark(rgb(24, 95, 165), rgb(111, 173, 233));"/></g><g><rect x="1" y="600" width="200" height="60" rx="6" ry="6" fill="#faece7" stroke="#d85a30" stroke-width="2" pointer-events="all" style="fill: light-dark(rgb(250, 236, 231), rgb(41, 29, 25)); stroke: light-dark(rgb(216, 90, 48), rgb(228, 119, 83));"/></g><g><g transform="translate(-0.5 -0.5)"><switch><foreignObject style="overflow: visible; text-align: left;" pointer-events="none" width="100%" height="100%" requiredFeatures="http://www.w3.org/TR/SVG11/feature#Extensibility"><div xmlns="http://www.w3.org/1999/xhtml" style="display: flex; align-items: unsafe center; justify-content: unsafe center; width: 198px; height: 1px; padding-top: 630px; margin-left: 2px;"><div style="box-sizing: border-box; font-size: 0; text-align: center; color: #4A1B0C; "><div style="display: inline-block; font-size: 12px; font-family: &quot;Helvetica&quot;; color: light-dark(#4A1B0C, #efc7ba); line-height: 1.2; pointer-events: all; font-weight: bold; white-space: normal; word-wrap: normal; ">Generated Files</div></div></div></foreignObject><text x="101" y="634" fill="#4A1B0C" font-family="&quot;Helvetica&quot;" font-size="12px" text-anchor="middle" font-weight="bold">Generated Files</text></switch></g></g><g><rect x="1" y="630" width="200" height="20" fill="none" stroke="none" pointer-events="all"/></g><g><g transform="translate(-0.5 -0.5)"><switch><foreignObject style="overflow: visible; text-align: left;" pointer-events="none" width="100%" height="100%" requiredFeatures="http://www.w3.org/TR/SVG11/feature#Extensibility"><div xmlns="http://www.w3.org/1999/xhtml" style="display: flex; align-items: unsafe flex-start; justify-content: unsafe center; width: 1px; height: 1px; padding-top: 637px; margin-left: 101px;"><div style="box-sizing: border-box; font-size: 0; text-align: center; color: #4A1B0C; "><div style="display: inline-block; font-size: 10px; font-family: &quot;Helvetica&quot;; color: light-dark(#4A1B0C, #efc7ba); line-height: 1.2; pointer-events: all; white-space: nowrap; ">Reports / PDFs / CSVs</div></div></div></foreignObject><text x="101" y="647" fill="#4A1B0C" font-family="&quot;Helvetica&quot;" font-size="10px" text-anchor="middle">Reports / PDFs / CSVs</text></switch></g></g><g><rect x="331" y="600" width="200" height="60" rx="6" ry="6" fill="#f1efe8" stroke="#5f5e5a" stroke-width="2" pointer-events="all" style="fill: light-dark(rgb(241, 239, 232), rgb(34, 32, 26)); stroke: light-dark(rgb(95, 94, 90), rgb(157, 156, 152));"/></g><g><g transform="translate(-0.5 -0.5)"><switch><foreignObject style="overflow: visible; text-align: left;" pointer-events="none" width="100%" height="100%" requiredFeatures="http://www.w3.org/TR/SVG11/feature#Extensibility"><div xmlns="http://www.w3.org/1999/xhtml" style="display: flex; align-items: unsafe center; justify-content: unsafe center; width: 198px; height: 1px; padding-top: 630px; margin-left: 332px;"><div style="box-sizing: border-box; font-size: 0; text-align: center; color: #2C2C2A; "><div style="display: inline-block; font-size: 12px; font-family: &quot;Helvetica&quot;; color: light-dark(#2C2C2A, #c7c7c5); line-height: 1.2; pointer-events: all; font-weight: bold; white-space: normal; word-wrap: normal; ">Execution Logs</div></div></div></foreignObject><text x="431" y="634" fill="#2C2C2A" font-family="&quot;Helvetica&quot;" font-size="12px" text-anchor="middle" font-weight="bold">Execution Logs</text></switch></g></g><g><rect x="331" y="630" width="200" height="20" fill="none" stroke="none" pointer-events="all"/></g><g><g transform="translate(-0.5 -0.5)"><switch><foreignObject style="overflow: visible; text-align: left;" pointer-events="none" width="100%" height="100%" requiredFeatures="http://www.w3.org/TR/SVG11/feature#Extensibility"><div xmlns="http://www.w3.org/1999/xhtml" style="display: flex; align-items: unsafe flex-start; justify-content: unsafe center; width: 1px; height: 1px; padding-top: 637px; margin-left: 431px;"><div style="box-sizing: border-box; font-size: 0; text-align: center; color: #2C2C2A; "><div style="display: inline-block; font-size: 10px; font-family: &quot;Helvetica&quot;; color: light-dark(#2C2C2A, #c7c7c5); line-height: 1.2; pointer-events: all; white-space: nowrap; ">Process Results / Traces</div></div></div></foreignObject><text x="431" y="647" fill="#2C2C2A" font-family="&quot;Helvetica&quot;" font-size="10px" text-anchor="middle">Process Results / Traces</text></switch></g></g><g><rect x="661" y="600" width="200" height="60" rx="6" ry="6" fill="#e6f1fb" stroke="#185fa5" stroke-width="2" pointer-events="all" style="fill: light-dark(rgb(230, 241, 251), rgb(24, 33, 42)); stroke: light-dark(rgb(24, 95, 165), rgb(111, 173, 233));"/></g><g><g transform="translate(-0.5 -0.5)"><switch><foreignObject style="overflow: visible; text-align: left;" pointer-events="none" width="100%" height="100%" requiredFeatures="http://www.w3.org/TR/SVG11/feature#Extensibility"><div xmlns="http://www.w3.org/1999/xhtml" style="display: flex; align-items: unsafe center; justify-content: unsafe center; width: 198px; height: 1px; padding-top: 630px; margin-left: 662px;"><div style="box-sizing: border-box; font-size: 0; text-align: center; color: #042C53; "><div style="display: inline-block; font-size: 12px; font-family: &quot;Helvetica&quot;; color: light-dark(#042C53, #aed1f2); line-height: 1.2; pointer-events: all; font-weight: bold; white-space: normal; word-wrap: normal; ">AI Outputs</div></div></div></foreignObject><text x="761" y="634" fill="#042C53" font-family="&quot;Helvetica&quot;" font-size="12px" text-anchor="middle" font-weight="bold">AI Outputs</text></switch></g></g><g><rect x="661" y="630" width="200" height="20" fill="none" stroke="none" pointer-events="all"/></g><g><g transform="translate(-0.5 -0.5)"><switch><foreignObject style="overflow: visible; text-align: left;" pointer-events="none" width="100%" height="100%" requiredFeatures="http://www.w3.org/TR/SVG11/feature#Extensibility"><div xmlns="http://www.w3.org/1999/xhtml" style="display: flex; align-items: unsafe flex-start; justify-content: unsafe center; width: 1px; height: 1px; padding-top: 637px; margin-left: 761px;"><div style="box-sizing: border-box; font-size: 0; text-align: center; color: #042C53; "><div style="display: inline-block; font-size: 10px; font-family: &quot;Helvetica&quot;; color: light-dark(#042C53, #aed1f2); line-height: 1.2; pointer-events: all; white-space: nowrap; ">Models / Embeddings / Data</div></div></div></foreignObject><text x="761" y="647" fill="#042C53" font-family="&quot;Helvetica&quot;" font-size="10px" text-anchor="middle">Models / Embeddings / Data</text></switch></g></g></g><switch><g requiredFeatures="http://www.w3.org/TR/SVG11/feature#Extensibility"/><a transform="translate(0,-5)" xlink:href="https://www.drawio.com/doc/faq/svg-export-text-problems" target="_blank"><text text-anchor="middle" font-size="10px" x="50%" y="100%">Text is not SVG - cannot display</text></a></switch></svg>